<svg id="svg"
     version="1.1"
     width="1024"
     height="1024"
     viewBox="0 0 1024 1024"
     xmlns="http://www.w3.org/2000/svg">
  <path d="M383.047 182.138 C 355.538 186.699,330.341 207.260,320.624 233.075 C 314.912 248.249,315.000 246.375,315.000 353.347 C 315.000 460.287,314.983 459.916,320.611 474.910 C 329.813 499.423,351.037 518.555,377.500 526.191 L 385.500 528.500 500.000 528.500 L 614.500 528.500 622.289 526.242 C 639.195 521.342,650.290 514.667,662.115 502.281 C 674.554 489.252,682.527 473.260,684.953 456.471 C 685.573 452.180,685.968 412.542,685.980 353.381 C 686.002 246.948,686.011 247.126,679.615 231.436 C 677.806 227.001,674.373 220.494,671.985 216.978 C 663.020 203.776,646.691 190.925,632.493 185.897 C 618.863 181.071,618.683 181.064,500.000 181.152 C 438.675 181.197,386.046 181.641,383.047 182.138 M407.663 228.135 C 410.722 230.674,412.200 235.110,411.574 239.876 C 411.240 242.419,410.966 245.860,410.965 247.522 C 410.963 250.828,432.607 403.396,439.123 446.000 C 443.477 474.472,444.381 487.620,442.170 490.291 C 441.439 491.175,439.314 492.401,437.448 493.017 C 433.272 494.395,429.120 492.737,427.314 488.969 C 425.797 485.805,420.839 451.430,398.557 289.598 C 393.654 253.991,392.824 249.442,390.844 247.334 C 389.226 245.612,388.511 243.389,388.203 239.125 C 387.817 233.800,388.036 232.991,390.654 230.061 C 394.978 225.222,403.051 224.308,407.663 228.135 M487.869 236.034 C 501.010 237.383,509.208 239.545,528.573 246.769 C 546.725 253.541,550.145 254.477,562.149 255.962 C 576.804 257.774,595.395 254.836,612.806 247.955 C 617.264 246.194,621.607 245.019,622.456 245.345 C 624.527 246.139,624.419 249.728,621.937 262.587 C 619.038 277.610,614.030 294.395,608.088 309.000 C 605.291 315.875,603.002 322.258,603.001 323.184 C 603.000 325.023,610.766 335.152,623.560 350.000 C 633.145 361.124,637.000 366.591,637.000 369.062 C 637.000 373.688,620.047 383.853,604.282 388.678 C 596.276 391.129,593.997 391.372,578.500 391.433 C 557.781 391.515,550.660 390.170,531.176 382.500 C 501.449 370.797,480.568 371.364,454.178 384.593 C 448.346 387.517,443.398 389.731,443.182 389.515 C 442.966 389.299,442.145 383.582,441.359 376.811 C 440.573 370.040,436.553 340.650,432.427 311.500 C 428.301 282.350,424.662 256.433,424.341 253.906 C 423.778 249.466,423.879 249.238,427.382 247.073 C 431.708 244.399,445.142 239.726,453.500 237.986 C 458.471 236.951,466.054 235.998,476.144 235.140 C 477.048 235.063,482.324 235.466,487.869 236.034 M266.500 574.464 C 255.340 578.484,252.628 593.076,261.579 600.936 C 265.726 604.577,268.620 605.416,274.674 604.733 C 283.384 603.752,288.399 597.399,287.720 588.209 C 287.287 582.355,285.000 578.488,280.395 575.826 C 276.078 573.329,271.025 572.833,266.500 574.464 M552.218 575.663 C 541.936 580.731,541.417 596.768,551.337 602.899 C 555.587 605.526,562.300 605.645,567.016 603.176 C 571.008 601.086,575.000 594.249,575.000 589.500 C 575.000 584.625,570.999 577.749,567.000 575.752 C 562.646 573.576,556.526 573.540,552.218 575.663 M304.000 647.000 L 304.000 718.000 318.500 718.000 L 333.000 718.000 333.000 647.000 L 333.000 576.000 318.500 576.000 L 304.000 576.000 304.000 647.000 M752.500 577.861 C 747.190 581.140,745.651 583.663,745.223 589.787 C 744.890 594.543,745.218 596.086,747.181 599.000 C 753.662 608.617,768.530 607.833,773.377 597.619 C 778.276 587.295,771.289 576.007,760.000 576.007 C 757.365 576.007,754.257 576.775,752.500 577.861 M141.000 649.000 L 141.000 718.000 155.500 718.000 L 170.000 718.000 170.000 694.620 L 170.000 671.241 188.750 670.723 C 201.544 670.369,208.967 669.724,212.119 668.690 C 232.020 662.162,244.072 645.473,243.983 624.566 C 243.958 618.728,241.396 607.449,238.944 602.385 C 235.967 596.235,229.043 588.886,223.262 585.739 C 213.920 580.654,208.472 580.031,173.250 580.015 L 141.000 580.000 141.000 649.000 M479.000 604.000 L 479.000 617.000 470.500 617.000 L 462.000 617.000 462.000 628.000 L 462.000 639.000 470.422 639.000 L 478.844 639.000 479.226 668.750 C 479.650 701.724,480.088 704.335,486.293 710.872 C 491.526 716.387,496.995 718.282,509.172 718.798 C 515.042 719.047,521.904 718.942,524.422 718.564 L 529.000 717.877 529.000 706.439 L 529.000 695.000 520.934 695.000 C 506.317 695.000,506.000 694.311,506.000 662.532 L 506.000 639.000 517.500 639.000 L 529.000 639.000 529.000 628.000 L 529.000 617.000 517.500 617.000 L 506.000 617.000 506.000 604.000 L 506.000 591.000 492.500 591.000 L 479.000 591.000 479.000 604.000 M200.707 605.506 C 206.813 607.319,212.555 613.112,213.561 618.475 C 214.811 625.136,213.598 633.499,210.759 637.788 C 206.243 644.612,201.040 646.388,184.250 646.839 L 170.000 647.222 170.000 625.611 L 170.000 604.000 182.818 604.000 C 191.323 604.000,197.343 604.507,200.707 605.506 M385.032 616.065 C 375.896 618.457,368.605 622.750,361.366 630.000 C 341.920 649.475,342.037 685.819,361.609 705.391 C 370.844 714.627,386.672 720.965,400.500 720.965 C 412.968 720.965,429.385 714.937,438.152 707.140 C 448.462 697.971,453.919 685.909,454.728 670.500 C 455.627 653.376,451.167 641.025,440.073 629.921 C 426.219 616.054,405.244 610.774,385.032 616.065 M626.782 615.486 C 603.176 621.486,588.000 641.903,588.000 667.661 C 588.000 687.320,595.235 702.186,609.620 712.083 C 617.739 717.669,626.965 720.263,639.000 720.345 C 650.781 720.424,657.777 718.798,667.237 713.779 C 676.955 708.623,685.563 697.436,687.583 687.336 L 688.191 684.297 676.885 683.581 C 670.667 683.188,664.375 682.625,662.901 682.330 C 660.539 681.858,660.085 682.214,659.050 685.347 C 656.910 691.832,648.764 696.979,640.616 696.994 C 631.564 697.012,621.796 689.670,618.624 680.465 C 610.458 656.769,623.909 635.935,645.308 639.132 C 652.250 640.170,657.541 644.888,660.606 652.773 C 660.748 653.138,687.400 649.892,687.862 649.453 C 688.659 648.696,684.969 639.815,682.165 635.740 C 672.738 622.038,659.877 615.219,642.000 614.444 C 635.705 614.171,630.571 614.522,626.782 615.486 M827.500 615.020 C 807.903 618.943,792.012 634.126,787.508 653.231 C 783.247 671.303,787.634 690.697,798.795 703.122 C 809.220 714.728,822.659 720.437,839.500 720.412 C 855.796 720.389,867.464 715.730,878.000 705.040 C 887.662 695.236,892.490 682.302,892.392 666.483 C 892.233 640.862,876.223 620.546,852.174 615.449 C 844.979 613.924,833.933 613.732,827.500 615.020 M258.000 668.000 L 258.000 718.000 272.000 718.000 L 286.000 718.000 286.000 668.000 L 286.000 618.000 272.000 618.000 L 258.000 618.000 258.000 668.000 M545.998 668.250 L 545.997 718.500 559.498 718.196 L 573.000 717.892 573.000 667.946 L 573.000 618.000 559.500 618.000 L 546.000 618.000 545.998 668.250 M746.000 668.000 L 746.000 718.000 759.500 718.000 L 773.000 718.000 773.000 668.000 L 773.000 618.000 759.500 618.000 L 746.000 618.000 746.000 668.000 M411.500 640.896 C 425.974 647.597,430.600 671.559,420.396 686.978 C 412.508 698.897,391.435 699.630,382.104 688.310 C 375.078 679.787,373.816 661.604,379.523 651.130 C 382.590 645.500,386.464 641.967,391.500 640.207 C 396.498 638.460,407.021 638.822,411.500 640.896 M849.556 640.886 C 854.921 643.323,860.691 650.221,862.523 656.388 C 863.335 659.124,864.000 664.380,864.000 668.067 C 864.000 685.990,854.339 696.686,838.443 696.361 C 828.373 696.155,821.261 691.261,816.846 681.500 C 813.917 675.024,813.725 663.016,816.424 655.090 C 818.588 648.739,825.172 641.580,830.176 640.138 C 835.816 638.513,845.122 638.872,849.556 640.886 M710.230 687.019 C 702.277 688.176,697.005 694.462,697.002 702.790 C 696.998 712.914,704.437 719.626,714.716 718.774 C 720.700 718.277,724.235 716.159,727.839 710.908 C 729.761 708.108,730.102 706.556,729.753 702.209 C 728.928 691.930,720.664 685.501,710.230 687.019 M262.838 771.134 C 257.904 772.512,251.141 778.479,248.886 783.444 C 246.770 788.103,246.397 797.901,248.138 803.101 C 250.007 808.684,253.954 813.070,259.383 815.598 C 275.354 823.035,292.908 812.333,292.978 795.116 C 293.036 780.828,285.260 772.015,271.349 770.603 C 268.682 770.332,264.852 770.571,262.838 771.134 M395.358 770.906 C 386.049 773.267,380.101 780.877,379.246 791.521 C 378.522 800.539,380.381 806.433,385.589 811.642 C 390.143 816.196,394.777 817.986,402.038 817.994 C 410.294 818.005,419.762 811.092,421.548 803.750 C 422.202 801.062,422.117 801.000,417.769 801.000 C 413.994 801.000,413.149 801.379,412.181 803.502 C 410.736 806.674,405.357 809.991,401.651 809.996 C 396.644 810.003,391.912 807.016,389.895 802.576 C 386.275 794.606,388.185 785.074,394.299 780.589 C 399.693 776.633,409.541 779.063,411.980 784.953 C 413.115 787.693,413.684 788.000,417.621 788.000 C 422.816 788.000,423.192 786.663,419.722 780.535 C 415.555 773.180,404.158 768.675,395.358 770.906 M725.500 770.929 C 713.820 773.748,707.211 783.584,708.256 796.597 C 709.217 808.570,716.722 816.501,728.203 817.677 C 740.222 818.909,749.712 812.541,751.951 801.744 C 753.834 792.662,754.071 792.873,741.750 792.674 L 731.000 792.500 731.000 796.250 L 731.000 800.000 737.000 800.000 C 741.202 800.000,743.000 800.383,743.000 801.277 C 743.000 803.386,740.066 806.915,736.989 808.506 C 725.513 814.440,713.972 802.043,717.976 788.083 C 720.983 777.598,733.956 775.039,740.776 783.586 C 743.120 786.523,744.103 787.000,747.817 787.000 C 751.834 787.000,752.086 786.843,751.441 784.750 C 749.239 777.613,745.145 773.751,737.269 771.380 C 732.315 769.890,730.150 769.806,725.500 770.929 M159.000 794.000 L 159.000 817.000 163.500 817.000 L 168.000 817.000 168.000 809.000 L 168.000 801.000 174.599 801.000 C 185.945 801.000,192.002 796.086,191.998 786.882 C 191.996 780.490,189.325 775.916,184.038 773.250 C 180.273 771.352,177.969 771.000,169.288 771.000 L 159.000 771.000 159.000 794.000 M203.000 793.895 L 203.000 817.000 207.500 817.000 L 212.000 817.000 212.000 808.500 L 212.000 800.000 215.419 800.000 C 218.676 800.000,219.055 800.397,223.416 808.399 L 227.995 816.798 232.497 817.156 C 234.974 817.353,237.000 817.390,237.000 817.237 C 237.000 817.085,234.978 812.933,232.506 808.012 C 228.124 799.287,228.063 799.037,230.060 797.968 C 235.686 794.957,237.809 784.479,234.044 778.304 C 230.521 772.526,227.865 771.538,214.795 771.145 L 203.000 770.789 203.000 793.895 M317.000 788.500 C 317.000 804.667,316.848 806.152,315.000 808.000 C 312.460 810.540,310.530 810.530,307.962 807.962 C 306.361 806.361,305.180 806.063,302.462 806.573 C 298.569 807.303,298.366 807.873,300.517 812.033 C 305.001 820.704,320.717 819.709,324.560 810.510 C 325.633 807.943,326.000 802.463,326.000 789.032 L 326.000 771.000 321.500 771.000 L 317.000 771.000 317.000 788.500 M340.000 794.000 L 340.000 817.000 354.750 817.001 L 369.500 817.001 369.397 813.369 L 369.294 809.737 359.147 809.926 L 349.000 810.114 349.000 803.557 L 349.000 797.000 358.000 797.000 L 367.000 797.000 367.000 793.500 L 367.000 790.000 358.000 790.000 L 349.000 790.000 349.000 784.500 L 349.000 779.000 359.000 779.000 L 369.000 779.000 369.000 775.000 L 369.000 771.000 354.500 771.000 L 340.000 771.000 340.000 794.000 M431.807 774.531 C 431.580 776.472,431.606 778.272,431.864 778.531 C 432.122 778.789,434.958 779.000,438.167 779.000 L 444.000 779.000 444.000 798.257 L 444.000 817.514 448.500 817.157 L 453.000 816.799 453.000 797.949 L 453.000 779.100 458.750 778.800 L 464.500 778.500 464.810 774.750 L 465.121 771.000 448.670 771.000 L 432.219 771.000 431.807 774.531 M497.000 793.945 L 497.000 817.000 501.500 817.000 L 506.000 817.000 506.000 802.379 L 506.000 787.758 511.418 798.129 C 516.764 808.362,516.887 808.504,520.668 808.774 L 524.500 809.048 530.221 798.274 L 535.942 787.500 535.971 802.145 L 536.000 816.790 540.000 817.171 L 544.000 817.553 544.000 794.276 L 544.000 771.000 539.697 771.000 L 535.394 771.000 528.947 783.131 C 525.401 789.803,522.050 795.884,521.500 796.644 C 520.744 797.688,518.789 794.784,513.500 784.763 L 506.500 771.500 501.750 771.195 L 497.000 770.890 497.000 793.945 M571.894 773.750 C 564.472 793.066,556.000 815.919,556.000 816.622 C 556.000 817.113,557.950 817.359,560.334 817.170 C 564.531 816.836,564.724 816.668,566.447 811.876 L 568.227 806.928 577.300 807.214 L 586.373 807.500 588.088 812.469 L 589.803 817.439 594.151 817.129 C 596.543 816.958,598.555 816.747,598.623 816.659 C 598.739 816.509,589.924 792.436,584.375 777.750 L 581.825 771.000 577.388 771.000 C 573.470 771.000,572.827 771.322,571.894 773.750 M609.000 794.000 L 609.000 817.000 613.474 817.000 L 617.948 817.000 618.224 801.923 L 618.500 786.846 629.000 801.810 C 639.473 816.734,639.511 816.774,643.750 817.144 L 648.000 817.514 648.000 794.257 L 648.000 771.000 643.343 771.000 L 638.687 771.000 639.326 786.500 C 639.678 795.025,639.840 802.000,639.686 802.000 C 639.531 802.000,634.505 795.025,628.516 786.500 L 617.627 771.000 613.313 771.000 L 609.000 771.000 609.000 794.000 M674.328 774.750 C 673.464 776.813,669.879 786.308,666.360 795.850 C 662.842 805.393,659.506 814.055,658.946 815.100 C 658.013 816.844,658.324 817.000,662.730 817.000 L 667.531 817.000 669.319 811.963 L 671.108 806.926 680.220 807.213 L 689.332 807.500 690.994 812.475 L 692.656 817.450 697.078 817.134 C 699.510 816.960,701.550 816.747,701.611 816.659 C 701.672 816.572,697.897 806.263,693.222 793.750 L 684.722 771.000 680.310 771.000 C 676.157 771.000,675.806 771.221,674.328 774.750 M765.000 794.000 L 765.000 817.000 779.500 817.000 L 794.000 817.000 794.000 813.500 L 794.000 810.000 784.000 810.000 L 774.000 810.000 774.000 803.500 L 774.000 797.000 782.500 797.000 L 791.000 797.000 791.000 793.500 L 791.000 790.000 782.500 790.000 L 774.000 790.000 774.000 784.500 L 774.000 779.000 783.500 779.000 L 793.000 779.000 793.000 775.000 L 793.000 771.000 779.000 771.000 L 765.000 771.000 765.000 794.000 M807.000 794.257 L 807.000 817.514 811.373 817.167 L 815.746 816.819 815.674 808.659 L 815.603 800.500 819.280 800.191 L 822.956 799.882 827.159 808.357 L 831.362 816.831 836.182 817.166 C 838.832 817.350,841.001 817.321,841.001 817.101 C 841.000 816.882,838.912 812.873,836.360 808.191 L 831.720 799.679 834.388 797.736 C 842.893 791.541,841.600 778.072,832.038 773.250 C 828.273 771.352,825.969 771.000,817.288 771.000 L 807.000 771.000 807.000 794.257 M277.338 780.711 C 281.505 782.812,284.402 789.960,283.652 796.291 C 282.956 802.169,281.050 805.389,276.696 808.044 C 267.442 813.687,256.006 806.046,256.002 794.218 C 255.997 781.399,266.063 775.027,277.338 780.711 M181.000 781.000 C 182.222 782.222,183.000 784.333,183.000 786.427 C 183.000 791.244,179.312 794.000,172.865 794.000 L 168.000 794.000 168.000 786.500 L 168.000 779.000 173.500 779.000 C 177.667 779.000,179.485 779.485,181.000 781.000 M225.171 780.655 C 226.330 781.703,227.000 783.698,227.000 786.098 C 227.000 791.089,224.308 793.000,217.277 793.000 L 212.000 793.000 212.000 786.000 L 212.000 779.000 217.671 779.000 C 221.545 779.000,223.922 779.525,225.171 780.655 M829.000 781.000 C 831.317 783.317,831.609 787.785,829.621 790.504 C 828.588 791.916,826.642 792.492,821.871 792.796 L 815.500 793.201 815.500 786.101 L 815.500 779.000 821.250 779.000 C 825.667 779.000,827.464 779.464,829.000 781.000 M580.655 790.996 C 581.945 794.568,583.000 797.831,583.000 798.246 C 583.000 798.661,580.327 799.000,577.060 799.000 L 571.119 799.000 573.454 792.250 C 577.018 781.949,577.293 781.373,577.839 783.051 C 578.098 783.848,579.366 787.423,580.655 790.996 M685.473 796.916 C 686.094 798.872,685.761 799.000,680.067 799.000 C 676.730 799.000,674.000 798.829,674.000 798.619 C 674.000 798.302,677.575 788.416,679.649 783.000 C 680.142 781.713,682.236 786.716,685.473 796.916 "
        stroke="none"
        fill="black"
        fill-rule="evenodd" />
</svg>
