<?xml version="1.0" encoding="UTF-8" standalone="no"?>
<svg
   id="svg"
   version="1.1"
   width="1024"
   height="959.08002"
   viewBox="0 0 1024 959.08002"
   xmlns="http://www.w3.org/2000/svg">
  <defs
     id="defs1" />
  <g
     id="g1"
     transform="matrix(0.99945504,0,0,1,0.32825944,0.29010207)">
    <path
       d="M 839.11248,3.5354129 C 945.00446,20.612411 1028.7751,123.03762 1022.5748,230.49957 c 2.0214,176.45921 2.8505,353.05722 -1.4164,529.47351 -14.6056,101.46628 -103.52771,188.92304 -205.68941,198.81716 -206.95735,0 -413.91469,0 -620.87204,0 C 98.318215,939.08973 12.073817,859.45218 3.2219106,758.72397 -2.9531343,591.69565 0.84238451,424.39595 0.66039827,257.26793 -2.0372495,195.1257 8.9128988,129.33575 52.077562,81.698826 97.518887,26.727826 168.91664,-5.2199785 240.3354,1.4246894 436.99588,0.37510316 633.76413,-2.3554295 830.36852,2.5149659 Z"
       id="path2"
       style="fill:#112438;stroke-width:2.76024" />
    <path
       d="m 419.55633,151.44276 c -39.57212,5.20414 -80.69114,12.79674 -114.96433,34.28668 -7.5126,25.14301 5.81629,54.52022 6.42522,81.19816 14.74356,102.67228 28.70667,205.49929 42.79577,308.23099 37.17301,-15.67442 73.19323,-36.93163 114.25638,-40.8569 55.52469,-7.81527 109.01387,13.53249 159.77273,33.02259 46.81832,16.65735 97.55329,14.12086 146.33914,11.37216 39.69893,-8.20201 79.46217,-24.23933 110.01026,-51.39594 12.22033,-21.79933 -19.51482,-40.7162 -30.05819,-58.37964 -20.29071,-25.05029 -43.86415,-48.37181 -59.18188,-76.8516 14.39724,-43.85688 34.03053,-86.08835 44.20696,-131.36224 5.37636,-26.33228 14.55129,-53.08166 12.64467,-80.12241 -22.99552,-7.65194 -50.11442,16.73284 -75.36562,18.38429 -57.44414,15.63541 -119.191,10.02486 -173.85245,-12.97623 -42.73772,-16.54146 -86.42918,-31.94463 -132.49072,-35.27798 -16.89189,-2.87557 -33.66939,-1.18104 -50.53794,0.72807 z"
       id="path4"
       style="fill:#fab336;stroke-width:2.76024" />
    <path
       d="m 226.37833,124.0888 c -30.94683,6.8019 -29.83991,45.66152 -13.30163,65.47789 13.57319,64.02984 19.21983,129.53476 29.19197,194.21075 21.48399,151.51186 40.60572,303.39456 64.94024,454.48085 -2.41958,31.72854 51.89218,30.50918 46.98497,-0.72644 -2.51879,-68.86405 -17.60559,-136.52108 -26.14563,-204.77062 -21.44109,-149.78768 -43.6358,-299.48928 -63.16184,-449.5371 7.21542,-24.95302 0.2287,-64.87591 -33.86669,-59.88274 z"
       id="path3"
       style="fill:#fab336;stroke-width:2.76024" />
  </g>
</svg>
