<?xml version="1.0" encoding="UTF-8" standalone="no"?>
<svg
   id="svg"
   version="1.1"
   width="1024"
   height="959.08002"
   viewBox="0 0 1024 959.08002"
   sodipodi:docname="logo-icon-dark.svg"
   inkscape:version="1.3.2 (091e20e, 2023-11-25)"
   xmlns:inkscape="http://www.inkscape.org/namespaces/inkscape"
   xmlns:sodipodi="http://sodipodi.sourceforge.net/DTD/sodipodi-0.dtd"
   xmlns="http://www.w3.org/2000/svg"
   xmlns:svg="http://www.w3.org/2000/svg">
  <sodipodi:namedview
     id="namedview1"
     pagecolor="#ffffff"
     bordercolor="#000000"
     borderopacity="0.25"
     inkscape:showpageshadow="2"
     inkscape:pageopacity="0.0"
     inkscape:pagecheckerboard="0"
     inkscape:deskcolor="#d1d1d1"
     inkscape:zoom="0.24606915"
     inkscape:cx="510.01925"
     inkscape:cy="477.50806"
     inkscape:window-width="1840"
     inkscape:window-height="1036"
     inkscape:window-x="2878"
     inkscape:window-y="237"
     inkscape:window-maximized="0"
     inkscape:current-layer="svg" />
  <defs
     id="defs1" />
  <path
     d="m 838.98346,3.825515 c 105.83427,17.076998 189.55924,119.502205 183.36234,226.964155 2.0203,176.45921 2.8489,353.05722 -1.4156,529.47351 -14.5977,101.46628 -103.47132,188.92304 -205.57735,198.81716 -206.84457,0 -413.68912,0 -620.53369,0 C 98.592895,939.37983 12.395497,859.74228 3.5484142,759.01407 -2.6232655,591.98575 1.1701849,424.68605 0.98829782,257.55803 -1.7078798,195.4158 9.2363011,129.62585 52.377441,81.988928 97.794003,27.017928 169.15285,-4.9298764 240.53269,1.7147915 437.08599,0.66520523 633.74701,-2.0653274 830.24426,2.805068 Z"
     id="path2"
     style="fill:#f9f9f9;stroke-width:2.75949" />
  <path
     d="m 419.65595,151.73286 c -39.55056,5.20414 -80.64717,12.79674 -114.90168,34.28668 -7.50851,25.14301 5.81312,54.52022 6.42172,81.19816 14.73552,102.67228 28.69102,205.49929 42.77245,308.23099 37.15275,-15.67442 73.15334,-36.93163 114.19411,-40.8569 55.49443,-7.81527 108.95446,13.53249 159.68566,33.02259 46.79281,16.65735 97.50013,14.12086 146.25939,11.37216 39.6773,-8.20201 79.41887,-24.23933 109.95031,-51.39594 12.21367,-21.79933 -19.50418,-40.7162 -30.04181,-58.37964 -20.27965,-25.05029 -43.84024,-48.37181 -59.14963,-76.8516 14.3894,-43.85688 34.01199,-86.08835 44.18287,-131.36224 5.37343,-26.33228 14.54336,-53.08166 12.63778,-80.12241 -22.98299,-7.65194 -50.08711,16.73284 -75.32455,18.38429 -57.41283,15.63541 -119.12604,10.02486 -173.75771,-12.97623 -42.71442,-16.54146 -86.38207,-31.94463 -132.41851,-35.27798 -16.88269,-2.87557 -33.65104,-1.18104 -50.5104,0.72807 z"
     id="path4"
     style="fill:#fab336;stroke-width:2.75949" />
  <path
     d="m 226.58322,124.3789 c -30.92996,6.8019 -29.82365,45.66152 -13.29438,65.47789 13.56579,64.02984 19.20936,129.53476 29.17606,194.21075 21.47228,151.51186 40.58359,303.39456 64.90485,454.48085 -2.41826,31.72854 51.8639,30.50918 46.95937,-0.72644 -2.51742,-68.86405 -17.596,-136.52108 -26.13138,-204.77062 -21.42941,-149.78768 -43.61202,-299.48928 -63.12742,-449.5371 7.21148,-24.95302 0.22857,-64.87591 -33.84824,-59.88274 z"
     id="path3"
     style="fill:#fab336;stroke-width:2.75949" />
</svg>
